<?xml version="1.0" encoding="UTF-8"?>
<!-- Created with Inkscape (http://www.inkscape.org/) -->
<svg width="210mm" height="100mm" version="1.1" viewBox="0 0 210 100" xml:space="preserve" xmlns="http://www.w3.org/2000/svg"><defs><filter id="filter35" x="-.0053251" y="-.006011" width="1.0107" height="1.012" color-interpolation-filters="sRGB"><feFlood flood-color="rgb(64,99,216)" result="flood"/><feComposite in="flood" in2="SourceGraphic" operator="in" result="composite"/><feGaussianBlur result="fbSourceGraphic" stdDeviation="0.01"/><feColorMatrix in="fbSourceGraphic" result="fbSourceGraphicAlpha" values="0 0 0 -1 0 0 0 0 -1 0 0 0 0 -1 0 0 0 0 1 0"/><feFlood flood-color="rgb(149,88,178)" in="fbSourceGraphic" result="flood"/><feComposite in="flood" in2="fbSourceGraphic" operator="in" result="composite"/><feGaussianBlur stdDeviation="0.01"/></filter><filter id="filter35-3" x="-.01065" y="-.012022" width="1.0213" height="1.024" color-interpolation-filters="sRGB"><feFlood flood-color="rgb(64,99,216)" result="flood"/><feComposite in="flood" in2="SourceGraphic" operator="in" result="composite"/><feGaussianBlur result="fbSourceGraphic" stdDeviation="0.01"/><feColorMatrix in="fbSourceGraphic" result="fbSourceGraphicAlpha" values="0 0 0 -1 0 0 0 0 -1 0 0 0 0 -1 0 0 0 0 1 0"/><feFlood flood-color="rgb(56,152,38)" in="fbSourceGraphic" result="flood"/><feComposite in="flood" in2="fbSourceGraphic" operator="in" result="composite"/><feGaussianBlur result="fbSourceGraphic" stdDeviation="0.01"/><feColorMatrix in="fbSourceGraphic" result="fbSourceGraphicAlpha" values="0 0 0 -1 0 0 0 0 -1 0 0 0 0 -1 0 0 0 0 1 0"/><feFlood flood-color="rgb(203,60,195)" in="fbSourceGraphic" result="flood"/><feComposite in="flood" in2="fbSourceGraphic" operator="in" result="composite"/><feGaussianBlur result="fbSourceGraphic" stdDeviation="0.01"/><feColorMatrix in="fbSourceGraphic" result="fbSourceGraphicAlpha" values="0 0 0 -1 0 0 0 0 -1 0 0 0 0 -1 0 0 0 0 1 0"/><feFlood flood-color="rgb(203,60,51)" in="fbSourceGraphic" result="flood"/><feComposite in="flood" in2="fbSourceGraphic" operator="in" result="composite"/><feGaussianBlur stdDeviation="0.01"/></filter><filter id="filter35-3-6" x="-.0053251" y="-.006011" width="1.0107" height="1.012" color-interpolation-filters="sRGB"><feFlood flood-color="rgb(64,99,216)" result="flood"/><feComposite in="flood" in2="SourceGraphic" operator="in" result="composite"/><feGaussianBlur result="fbSourceGraphic" stdDeviation="0.01"/><feColorMatrix in="fbSourceGraphic" result="fbSourceGraphicAlpha" values="0 0 0 -1 0 0 0 0 -1 0 0 0 0 -1 0 0 0 0 1 0"/><feFlood flood-color="rgb(56,152,38)" in="fbSourceGraphic" result="flood"/><feComposite in="flood" in2="fbSourceGraphic" operator="in" result="composite"/><feGaussianBlur stdDeviation="0.01"/></filter><filter id="filter81" x="-.0023851" y="-.0024023" width="1.0048" height="1.0048" color-interpolation-filters="sRGB"><feFlood flood-color="rgb(64,99,216)" result="flood"/><feComposite in="flood" in2="SourceGraphic" operator="in" result="composite"/><feGaussianBlur stdDeviation="0.01"/></filter></defs><g fill="#1a1a1a"><path transform="matrix(.87103 0 0 .87103 -41.829 -192.97)" d="m236.67 289.5c-0.70486 0-1.3611 0.134-1.9688 0.40137-0.58334 0.26736-1.1056 0.63194-1.5674 1.0938-0.4618 0.4375-0.82638 0.97255-1.0938 1.6045-0.24305 0.60764-0.36523 1.2511-0.36523 1.9316 0 0.70486 0.12218 1.3611 0.36523 1.9688 0.26737 0.60764 0.63195 1.1309 1.0938 1.5684 0.46181 0.4375 0.98405 0.77745 1.5674 1.0205 0.60764 0.26736 1.2639 0.40136 1.9688 0.40136s1.3611-0.134 1.9688-0.40136c0.63194-0.24306 1.167-0.58301 1.6045-1.0205 0.46181-0.4375 0.82639-0.96072 1.0938-1.5684s0.40039-1.2639 0.40039-1.9688c0-0.68056-0.13303-1.324-0.40039-1.9316-0.26736-0.63194-0.63194-1.167-1.0938-1.6045-0.4375-0.46181-0.97255-0.82639-1.6045-1.0938-0.60764-0.26737-1.2639-0.40137-1.9688-0.40137z" filter="url(#filter81)"/><g stroke-width=".87103"><path d="m68.29 34.168c-2.5405 0-4.8484 0.45489-6.9231 1.3652-2.0536 0.88917-3.8208 2.138-5.3027 3.7469s-2.6252 3.5144-3.4297 5.7161c-0.8045 2.1806-1.207 4.552-1.207 7.1137 0 2.1382 0.43428 4.1706 1.3023 6.0972 0.88917 1.9054 2.0847 3.5884 3.5879 5.0492 1.5031 1.4396 3.2712 2.5931 5.3036 3.4611 2.0324 0.84684 4.2021 1.2708 6.5097 1.2708 1.7995 0 3.5779-0.32872 5.335-0.98501 1.7572-0.67746 3.3767-1.5984 4.8587-2.7628 1.5031-1.1644 2.8051-2.5188 3.906-4.0642 1.122-1.5455 1.9374-3.1968 2.4455-4.954l-5.0178-0.79448c-0.29639 0.99503-0.77274 1.9271-1.429 2.7951-0.65629 0.84683-1.4287 1.5978-2.3179 2.2541-0.88917 0.63512-1.8633 1.1432-2.9218 1.5243-1.0374 0.35991-2.0956 0.54015-3.1753 0.54015-1.2491 0-2.3923-0.35963-3.4297-1.0794-1.0162-0.74098-1.9054-1.7254-2.6675-2.9533-0.76215-1.2491-1.3758-2.6892-1.8416-4.3194-0.44459-1.6301-0.70979-3.345-0.79447-5.1445h22.516c0-1.9265-0.37077-3.7366-1.1118-5.4303-0.74097-1.6937-1.7889-3.1647-3.1439-4.4138-1.3338-1.2491-2.943-2.2335-4.8272-2.9533-1.8842-0.71981-3.9587-1.0794-6.2239-1.0794zm-1.8416 4.0642c0.78332 0 1.5137 0.15878 2.1912 0.47634 0.67746 0.29639 1.2697 0.73068 1.7778 1.3023 0.5081 0.57161 0.92094 1.2599 1.2385 2.0644 0.33872 0.78331 0.55072 1.651 0.6354 2.6037h-11.115c0.10586-0.97386 0.31785-1.8527 0.6354-2.636 0.33873-0.80449 0.74126-1.4817 1.207-2.0321 0.48693-0.57161 1.0268-1.0059 1.6196-1.3023 0.59278-0.31756 1.1961-0.47634 1.8101-0.47634z"/><path d="m182.52 34.073-6.9546 3.6202v35.821c0 0.95269-0.0318 1.7354-0.0953 2.3494s-0.16908 1.1014-0.31728 1.4614-0.32843 0.6028-0.54013 0.72983c-0.21171 0.14819-0.45546 0.22286-0.73068 0.22286-1.0797 0-2.1062-0.29696-3.0801-0.88975-0.97386-0.57161-1.9583-1.6196-2.9533-3.1438l-5.176 3.7478c0.40225 0.42341 0.86744 0.8783 1.3967 1.3652 0.52926 0.5081 1.1644 0.97414 1.9054 1.3976 0.7198 0.42341 1.5669 0.77273 2.5408 1.048 0.95269 0.29639 2.0642 0.44402 3.3344 0.44402 1.8419 0 3.5884-0.16908 5.2398-0.50782 1.6513-0.33873 3.0906-0.9953 4.3185-1.9692 1.2491-0.97385 2.2335-2.3497 2.9533-4.128 0.74098-1.7572 1.1118-4.0754 1.1118-6.9546v-34.614z"/><path d="m109.83 33.533c-1.4608 0-2.858 0.33902-4.1918 1.0165-1.3126 0.67747-2.509 1.5769-3.5887 2.699l-2.9533-3.1753-6.8908 3.6202v29.565h9.8441v-23.531c0.25405-0.59279 0.60337-1.1429 1.048-1.651 0.46574-0.52927 0.985-0.98501 1.5566-1.3661 0.57162-0.40225 1.1853-0.70866 1.8416-0.92036 0.6563-0.23288 1.3232-0.3496 2.0006-0.3496 0.48692 0 0.92121 0.04207 1.3023 0.12674 0.40225 0.0635 0.78333 0.18024 1.1432 0.3496 0.3599 0.16936 0.71953 0.39166 1.0794 0.66688 0.38108 0.27522 0.79391 0.60308 1.2385 0.98415l3.3982-5.2398c-0.84683-0.69863-1.8424-1.3338-2.9856-1.9054-1.1432-0.59278-2.4238-0.88889-3.8422-0.88889z"/><path d="m5 24.196v43.061h10.575v-20.514h17.307v20.514h10.48v-43.061h-10.48v18.863h-17.307v-18.863z"/><path d="m202.05 18.163-6.8593 3.6202v45.475h9.8126v-49.095z"/><path d="m128.72 18.163-6.9546 3.6202v41.759c1.863 1.5031 3.9589 2.6043 6.2877 3.3029 2.35 0.67746 4.8063 1.0156 7.368 1.0156 1.736 0 3.3976-0.23259 4.9854-0.69834 1.609-0.46576 3.1118-1.1112 4.5091-1.9368 1.3973-0.84683 2.6675-1.863 3.8107-3.0486 1.1432-1.1856 2.1174-2.4876 2.9218-3.906 0.82566-1.4184 1.4608-2.9324 1.9054-4.5414 0.44459-1.6302 0.66688-3.3132 0.66688-5.0492 0-1.9689-0.34931-3.8322-1.048-5.5894-0.69864-1.7572-1.6728-3.2918-2.9218-4.6044-1.2491-1.3338-2.7305-2.3817-4.4453-3.1439-1.7148-0.78332-3.5884-1.1747-5.6208-1.1747-1.3973 0-2.8478 0.26436-4.3509 0.79363-1.5031 0.52927-2.8901 1.2064-4.1603 2.0321v-18.831zm8.3836 22.356c0.95268 0 1.853 0.2652 2.6998 0.79447 0.84683 0.52927 1.5772 1.2597 2.1912 2.1912 0.63513 0.91034 1.1321 1.9789 1.492 3.2068 0.3599 1.2067 0.54013 2.4984 0.54013 3.8745 0 1.8419-0.18023 3.567-0.54013 5.176-0.33874 1.5878-0.83569 2.9748-1.492 4.1604-0.63513 1.1644-1.4084 2.0853-2.3188 2.7628-0.88918 0.65629-1.8839 0.98415-2.9848 0.98415-0.55044 0-1.0585-0.0635-1.5243-0.19054-0.46576-0.12702-0.90004-0.2961-1.3023-0.5078-0.40225-0.21171-0.78332-0.45546-1.1432-0.73068-0.35991-0.27522-0.70923-0.56103-1.048-0.85742v-18.006c0.71981-0.82565 1.5772-1.5028 2.5722-2.0321 0.99503-0.55044 1.9477-0.82594 2.8581-0.82594z"/></g></g><g fill="#020202"><path transform="matrix(1.6275 -.24601 .24601 1.6275 -34.602 -54.413)" d="m126.25 67.198c-0.78326 0.66758-1.7604 1.0482-2.6484 1.5436-0.54656 0.30494-1.0767 0.72589-1.4865 1.1986-0.14934 0.17223-0.38177 0.35361-0.33362 0.60938 0.0614 0.32596 0.5874 0.50142 0.8592 0.60191 0.95014 0.3513 2.0139 0.32579 2.9531-0.04993 1.9806-0.79226 3.1328-2.8957 3.7734-4.8176 0.22646-0.67938 0.40678-1.3793 0.52532-2.0859 0.0319-0.19023 0.16751-0.56266 5e-3 -0.7164-0.21797-0.20558-0.43281 0.11575-0.5767 0.23736-0.49068 0.41471-1.1164 0.63992-1.7344 0.78644-1.7056 0.40437-3.4989 0.15068-5.0156 1.2028-0.96863 0.67192-1.4416 1.6348-1.577 2.7789-0.0387 0.32694-0.12159 1.1049 0.33482 1.1644 0.28986 0.03776 0.57251-0.36262 0.77343-0.52969 0.52706-0.43826 1.1224-0.76698 1.7578-1.0191 0.42732-0.16953 0.88028-0.25134 1.3125-0.40531 0.37686-0.13425 0.71773-0.33114 1.0781-0.4994m0.0937-0.07031-0.0937 0.07031v-0.02344z" filter="url(#filter35)"/><path transform="matrix(-.21781 -1.6316 1.6316 -.21781 86.117 240.74)" d="m122.27 68.252c-0.78326 0.66758-1.7604 1.0482-2.6484 1.5436-0.54656 0.30494-1.0767 0.72589-1.4865 1.1986-0.14934 0.17223-0.38177 0.35361-0.33362 0.60938 0.0614 0.32596 0.5874 0.50142 0.8592 0.60191 0.95014 0.3513 2.0139 0.32579 2.9531-0.04993 1.9806-0.79226 3.1328-2.8957 3.7734-4.8176 0.22646-0.67938 0.40678-1.3793 0.52532-2.0859 0.0319-0.19023 0.16751-0.56266 5e-3 -0.7164-0.21797-0.20558-0.43281 0.11575-0.5767 0.23736-0.49068 0.41471-1.1164 0.63992-1.7344 0.78644-1.7056 0.40437-3.4989 0.15068-5.0156 1.2028-0.96863 0.67192-1.4416 1.6348-1.577 2.7789-0.0387 0.32694-0.12159 1.1049 0.33482 1.1644 0.28986 0.03776 0.57251-0.36262 0.77343-0.52969 0.52706-0.43826 1.1224-0.76698 1.7578-1.0191 0.42732-0.16953 0.88028-0.25134 1.3125-0.40531 0.37686-0.13425 0.71773-0.33114 1.0781-0.4994m0.0937-0.07031-0.0937 0.07031v-0.02344z" filter="url(#filter35-3)"/><path transform="matrix(.40135 -1.5964 1.5964 .40135 17.426 180.36)" d="m122.27 68.252c-0.78326 0.66758-1.7604 1.0482-2.6484 1.5436-0.54656 0.30494-1.0767 0.72589-1.4865 1.1986-0.14934 0.17223-0.38177 0.35361-0.33362 0.60938 0.0614 0.32596 0.5874 0.50142 0.8592 0.60191 0.95014 0.3513 2.0139 0.32579 2.9531-0.04993 1.9806-0.79226 3.1328-2.8957 3.7734-4.8176 0.22646-0.67938 0.40678-1.3793 0.52532-2.0859 0.0319-0.19023 0.16751-0.56266 5e-3 -0.7164-0.21797-0.20558-0.43281 0.11575-0.5767 0.23736-0.49068 0.41471-1.1164 0.63992-1.7344 0.78644-1.7056 0.40437-3.4989 0.15068-5.0156 1.2028-0.96863 0.67192-1.4416 1.6348-1.577 2.7789-0.0387 0.32694-0.12159 1.1049 0.33482 1.1644 0.28986 0.03776 0.57251-0.36262 0.77343-0.52969 0.52706-0.43826 1.1224-0.76698 1.7578-1.0191 0.42732-0.16953 0.88028-0.25134 1.3125-0.40531 0.37686-0.13425 0.71773-0.33114 1.0781-0.4994m0.0937-0.07031-0.0937 0.07031v-0.02344z" filter="url(#filter35-3-6)"/></g></svg>
