<svg width="2420" height="2465" xmlns="http://www.w3.org/2000/svg" xmlns:xlink="http://www.w3.org/1999/xlink" xml:space="preserve" overflow="hidden"><g transform="translate(-990 -10)"><path d="M2430.41 2225.44C2383.93 2287.31 2344.17 2338.95 2322.66 2398.04 2301.57 2455.68 2293.03 2482.14 2340.77 2422.2 2385.32 2366.51 2427 2312.3 2487.71 2261.11 2491.94 2262.21 2496.66 2263.04 2501.35 2264.06 3052.23 2373.8 3453.22 2125.58 3382.73 1323.19 2958.73 1470.45 2358.07 1410.51 2420.17 2164.66 2422.58 2192.6 2424.7 2211.78 2430.41 2225.44L2430.41 2225.44 2430.41 2225.44ZM2560.87 2117.09C2704.87 1806.25 3074.76 1699.76 3258.24 1487.33 3059.49 1875.68 2896.82 1894.78 2560.87 2117.09L2560.87 2117.09Z" stroke="#AA79C1" stroke-width="36.7969" stroke-linecap="round" stroke-linejoin="round" stroke-miterlimit="10" fill="#AA79C1" fill-rule="evenodd"/><path d="M1133.73 2225.44C1087.13 2287.31 1047.28 2338.95 1025.68 2398.04 1004.57 2455.68 995.991 2482.14 1043.88 2422.2 1088.53 2366.51 1130.33 2312.3 1191.22 2261.11 1195.48 2262.21 1200.17 2263.04 1204.88 2264.06 1757.3 2373.8 2159.38 2125.58 2088.72 1323.19 1663.53 1470.45 1061.22 1410.51 1123.5 2164.66 1125.91 2192.6 1128.03 2211.78 1133.73 2225.44L1133.73 2225.44 1133.73 2225.44ZM1264.59 2117.09C1408.98 1806.25 1779.89 1699.76 1963.89 1487.33 1764.59 1875.68 1601.44 1894.78 1264.59 2117.09L1264.59 2117.09Z" stroke="#D5635C" stroke-width="36.7969" stroke-linecap="round" stroke-linejoin="round" stroke-miterlimit="10" fill="#D5635C" fill-rule="evenodd"/><path d="M1890.29 929.841C1843.85 991.617 1804.16 1043.16 1782.64 1102.15 1761.58 1159.69 1753.04 1186.09 1800.74 1126.27 1845.25 1070.68 1886.89 1016.54 1947.57 965.459 1951.8 966.585 1956.48 967.389 1961.17 968.408 2511.54 1077.94 2912.16 830.168 2841.74 29.191 2418.13 176.187 1818.03 116.359 1880.09 869.19 1882.48 897.09 1884.59 916.226 1890.29 929.841L1890.29 929.841 1890.29 929.841ZM2020.64 821.698C2164.5 511.423 2534.05 405.103 2717.36 193.031 2518.79 580.73 2356.28 599.786 2020.64 821.698L2020.64 821.698Z" stroke="#60AD51" stroke-width="36.7969" stroke-linecap="round" stroke-linejoin="round" stroke-miterlimit="10" fill="#60AD51" fill-rule="evenodd"/></g></svg>