<?xml version="1.0" encoding="UTF-8" standalone="no"?>
<!-- Created with Inkscape (http://www.inkscape.org/) -->

<svg
   width="210mm"
   height="100mm"
   viewBox="0 0 210 100"
   version="1.1"
   id="svg1"
   xml:space="preserve"
   sodipodi:docname="herb.svg"
   inkscape:version="1.3 (0e150ed, 2023-07-21)"
   inkscape:export-filename="herb.png"
   inkscape:export-xdpi="300"
   inkscape:export-ydpi="300"
   xmlns:inkscape="http://www.inkscape.org/namespaces/inkscape"
   xmlns:sodipodi="http://sodipodi.sourceforge.net/DTD/sodipodi-0.dtd"
   xmlns="http://www.w3.org/2000/svg"
   xmlns:svg="http://www.w3.org/2000/svg"><sodipodi:namedview
     id="namedview1"
     pagecolor="#ffffff"
     bordercolor="#000000"
     borderopacity="0.25"
     inkscape:showpageshadow="2"
     inkscape:pageopacity="0.0"
     inkscape:pagecheckerboard="0"
     inkscape:deskcolor="#d1d1d1"
     inkscape:document-units="mm"
     inkscape:zoom="0.94340519"
     inkscape:cx="351.38666"
     inkscape:cy="181.25828"
     inkscape:window-width="1512"
     inkscape:window-height="839"
     inkscape:window-x="0"
     inkscape:window-y="38"
     inkscape:window-maximized="1"
     inkscape:current-layer="layer3" /><defs
     id="defs1"><rect
       x="47.564392"
       y="233.06554"
       width="727.73523"
       height="156.96249"
       id="rect1" /><filter
       style="color-interpolation-filters:sRGB"
       inkscape:label="Silhouette"
       id="filter16"
       x="-0.0039999997"
       y="-0.0039999997"
       width="1.008"
       height="1.008"><feComposite
         in2="SourceGraphic"
         operator="arithmetic"
         k1="0"
         k2="1"
         result="composite1"
         id="feComposite15"
         k3="0"
         k4="0" /><feColorMatrix
         in="composite1"
         values="1"
         type="saturate"
         result="colormatrix1"
         id="feColorMatrix15" /><feFlood
         flood-opacity="1"
         flood-color="rgb(158,67,0)"
         result="flood1"
         id="feFlood15" /><feBlend
         in="flood1"
         in2="colormatrix1"
         mode="multiply"
         result="blend1"
         id="feBlend15" /><feBlend
         in2="blend1"
         mode="screen"
         result="blend2"
         id="feBlend16" /><feColorMatrix
         in="blend2"
         values="1"
         type="saturate"
         result="colormatrix2"
         id="feColorMatrix16" /><feComposite
         in="colormatrix2"
         in2="SourceGraphic"
         operator="in"
         result="fbSourceGraphic"
         id="feComposite16" /><feColorMatrix
         result="fbSourceGraphicAlpha"
         in="fbSourceGraphic"
         values="0 0 0 -1 0 0 0 0 -1 0 0 0 0 -1 0 0 0 0 1 0"
         id="feColorMatrix17" /><feComposite
         id="feComposite17"
         in2="fbSourceGraphic"
         operator="arithmetic"
         k1="0"
         k2="1"
         result="composite1"
         in="fbSourceGraphic"
         k3="0"
         k4="0" /><feColorMatrix
         id="feColorMatrix18"
         in="composite1"
         values="1"
         type="saturate"
         result="colormatrix1" /><feFlood
         id="feFlood18"
         flood-opacity="1"
         flood-color="rgb(158,67,0)"
         result="flood1" /><feBlend
         id="feBlend18"
         in="flood1"
         in2="colormatrix1"
         mode="multiply"
         result="blend1" /><feBlend
         id="feBlend19"
         in2="blend1"
         mode="screen"
         result="blend2" /><feColorMatrix
         id="feColorMatrix19"
         in="blend2"
         values="1"
         type="saturate"
         result="colormatrix2" /><feComposite
         id="feComposite19"
         in="colormatrix2"
         in2="fbSourceGraphic"
         operator="in"
         result="fbSourceGraphic" /><feColorMatrix
         result="fbSourceGraphicAlpha"
         in="fbSourceGraphic"
         values="0 0 0 -1 0 0 0 0 -1 0 0 0 0 -1 0 0 0 0 1 0"
         id="feColorMatrix20" /><feComposite
         id="feComposite20"
         in2="fbSourceGraphic"
         operator="arithmetic"
         k1="0"
         k2="7.19033"
         result="composite1"
         in="fbSourceGraphic"
         k3="0"
         k4="0" /><feColorMatrix
         id="feColorMatrix21"
         in="composite1"
         values="1"
         type="saturate"
         result="colormatrix1" /><feFlood
         id="feFlood21"
         flood-opacity="1"
         flood-color="rgb(158,67,0)"
         result="flood1" /><feBlend
         id="feBlend21"
         in="flood1"
         in2="colormatrix1"
         mode="multiply"
         result="blend1" /><feBlend
         id="feBlend22"
         in2="blend1"
         mode="screen"
         result="blend2" /><feColorMatrix
         id="feColorMatrix22"
         in="blend2"
         values="1"
         type="saturate"
         result="colormatrix2" /><feComposite
         id="feComposite22"
         in="colormatrix2"
         in2="fbSourceGraphic"
         operator="in"
         result="fbSourceGraphic" /><feColorMatrix
         result="fbSourceGraphicAlpha"
         in="fbSourceGraphic"
         values="0 0 0 -1 0 0 0 0 -1 0 0 0 0 -1 0 0 0 0 1 0"
         id="feColorMatrix23" /><feComposite
         id="feComposite23"
         in2="fbSourceGraphic"
         operator="arithmetic"
         k1="0"
         k2="7.19033"
         result="composite1"
         in="fbSourceGraphic"
         k3="0"
         k4="0" /><feColorMatrix
         id="feColorMatrix24"
         in="composite1"
         values="1"
         type="saturate"
         result="colormatrix1" /><feFlood
         id="feFlood24"
         flood-opacity="1"
         flood-color="rgb(158,67,0)"
         result="flood1" /><feBlend
         id="feBlend24"
         in="flood1"
         in2="colormatrix1"
         mode="multiply"
         result="blend1" /><feBlend
         id="feBlend25"
         in2="blend1"
         mode="screen"
         result="blend2" /><feColorMatrix
         id="feColorMatrix25"
         in="blend2"
         values="1"
         type="saturate"
         result="colormatrix2" /><feComposite
         id="feComposite25"
         in="colormatrix2"
         in2="fbSourceGraphic"
         operator="in"
         result="fbSourceGraphic" /><feColorMatrix
         result="fbSourceGraphicAlpha"
         in="fbSourceGraphic"
         values="0 0 0 -1 0 0 0 0 -1 0 0 0 0 -1 0 0 0 0 1 0"
         id="feColorMatrix26" /><feComposite
         id="feComposite26"
         in2="fbSourceGraphic"
         operator="arithmetic"
         k1="0"
         k2="7.19033"
         result="composite1"
         in="fbSourceGraphic"
         k3="0"
         k4="0" /><feColorMatrix
         id="feColorMatrix27"
         in="composite1"
         values="1"
         type="saturate"
         result="colormatrix1" /><feFlood
         id="feFlood27"
         flood-opacity="1"
         flood-color="rgb(158,67,0)"
         result="flood1" /><feBlend
         id="feBlend27"
         in="flood1"
         in2="colormatrix1"
         mode="multiply"
         result="blend1" /><feBlend
         id="feBlend28"
         in2="blend1"
         mode="screen"
         result="blend2" /><feColorMatrix
         id="feColorMatrix28"
         in="blend2"
         values="1"
         type="saturate"
         result="colormatrix2" /><feComposite
         id="feComposite28"
         in="colormatrix2"
         in2="fbSourceGraphic"
         operator="in"
         result="fbSourceGraphic" /><feColorMatrix
         result="fbSourceGraphicAlpha"
         in="fbSourceGraphic"
         values="0 0 0 -1 0 0 0 0 -1 0 0 0 0 -1 0 0 0 0 1 0"
         id="feColorMatrix29" /><feComposite
         id="feComposite29"
         in2="fbSourceGraphic"
         operator="arithmetic"
         k1="0"
         k2="10"
         result="composite1"
         in="fbSourceGraphic"
         k3="0"
         k4="0" /><feColorMatrix
         id="feColorMatrix30"
         in="composite1"
         values="1"
         type="saturate"
         result="colormatrix1" /><feFlood
         id="feFlood30"
         flood-opacity="1"
         flood-color="rgb(158,67,0)"
         result="flood1" /><feBlend
         id="feBlend30"
         in="flood1"
         in2="colormatrix1"
         mode="multiply"
         result="blend1" /><feBlend
         id="feBlend31"
         in2="blend1"
         mode="multiply"
         result="blend2" /><feColorMatrix
         id="feColorMatrix31"
         in="blend2"
         values="1"
         type="saturate"
         result="colormatrix2" /><feComposite
         id="feComposite31"
         in="colormatrix2"
         in2="fbSourceGraphic"
         operator="in"
         result="fbSourceGraphic" /><feColorMatrix
         result="fbSourceGraphicAlpha"
         in="fbSourceGraphic"
         values="0 0 0 -1 0 0 0 0 -1 0 0 0 0 -1 0 0 0 0 1 0"
         id="feColorMatrix33" /><feFlood
         id="feFlood33"
         flood-opacity="1"
         flood-color="rgb(202,0,0)"
         result="flood"
         in="fbSourceGraphic" /><feComposite
         id="feComposite33"
         in="flood"
         in2="fbSourceGraphic"
         operator="in"
         result="composite" /><feGaussianBlur
         id="feGaussianBlur33"
         stdDeviation="0.01"
         result="fbSourceGraphic" /><feColorMatrix
         result="fbSourceGraphicAlpha"
         in="fbSourceGraphic"
         values="0 0 0 -1 0 0 0 0 -1 0 0 0 0 -1 0 0 0 0 1 0"
         id="feColorMatrix34" /><feFlood
         id="feFlood34"
         flood-opacity="1"
         flood-color="rgb(64,99,216)"
         result="flood"
         in="fbSourceGraphic" /><feComposite
         id="feComposite34"
         in="flood"
         in2="fbSourceGraphic"
         operator="in"
         result="composite" /><feGaussianBlur
         id="feGaussianBlur34"
         stdDeviation="0.01" /></filter><filter
       style="color-interpolation-filters:sRGB"
       inkscape:label="Silhouette"
       id="filter16-9"
       x="-0.0039999997"
       y="-0.0039999997"
       width="1.008"
       height="1.008"><feComposite
         in2="SourceGraphic"
         operator="arithmetic"
         k1="0"
         k2="1"
         result="composite1"
         id="feComposite15-8"
         k3="0"
         k4="0" /><feColorMatrix
         in="composite1"
         values="1"
         type="saturate"
         result="colormatrix1"
         id="feColorMatrix15-6" /><feFlood
         flood-opacity="1"
         flood-color="rgb(158,67,0)"
         result="flood1"
         id="feFlood15-9" /><feBlend
         in="flood1"
         in2="colormatrix1"
         mode="multiply"
         result="blend1"
         id="feBlend15-0" /><feBlend
         in2="blend1"
         mode="screen"
         result="blend2"
         id="feBlend16-1" /><feColorMatrix
         in="blend2"
         values="1"
         type="saturate"
         result="colormatrix2"
         id="feColorMatrix16-6" /><feComposite
         in="colormatrix2"
         in2="SourceGraphic"
         operator="in"
         result="fbSourceGraphic"
         id="feComposite16-4" /><feColorMatrix
         result="fbSourceGraphicAlpha"
         in="fbSourceGraphic"
         values="0 0 0 -1 0 0 0 0 -1 0 0 0 0 -1 0 0 0 0 1 0"
         id="feColorMatrix17-4" /><feComposite
         id="feComposite17-8"
         in2="fbSourceGraphic"
         operator="arithmetic"
         k1="0"
         k2="1"
         result="composite1"
         in="fbSourceGraphic"
         k3="0"
         k4="0" /><feColorMatrix
         id="feColorMatrix18-6"
         in="composite1"
         values="1"
         type="saturate"
         result="colormatrix1" /><feFlood
         id="feFlood18-1"
         flood-opacity="1"
         flood-color="rgb(158,67,0)"
         result="flood1" /><feBlend
         id="feBlend18-4"
         in="flood1"
         in2="colormatrix1"
         mode="multiply"
         result="blend1" /><feBlend
         id="feBlend19-0"
         in2="blend1"
         mode="screen"
         result="blend2" /><feColorMatrix
         id="feColorMatrix19-8"
         in="blend2"
         values="1"
         type="saturate"
         result="colormatrix2" /><feComposite
         id="feComposite19-1"
         in="colormatrix2"
         in2="fbSourceGraphic"
         operator="in"
         result="fbSourceGraphic" /><feColorMatrix
         result="fbSourceGraphicAlpha"
         in="fbSourceGraphic"
         values="0 0 0 -1 0 0 0 0 -1 0 0 0 0 -1 0 0 0 0 1 0"
         id="feColorMatrix20-0" /><feComposite
         id="feComposite20-3"
         in2="fbSourceGraphic"
         operator="arithmetic"
         k1="0"
         k2="7.19033"
         result="composite1"
         in="fbSourceGraphic"
         k3="0"
         k4="0" /><feColorMatrix
         id="feColorMatrix21-1"
         in="composite1"
         values="1"
         type="saturate"
         result="colormatrix1" /><feFlood
         id="feFlood21-1"
         flood-opacity="1"
         flood-color="rgb(158,67,0)"
         result="flood1" /><feBlend
         id="feBlend21-5"
         in="flood1"
         in2="colormatrix1"
         mode="multiply"
         result="blend1" /><feBlend
         id="feBlend22-0"
         in2="blend1"
         mode="screen"
         result="blend2" /><feColorMatrix
         id="feColorMatrix22-8"
         in="blend2"
         values="1"
         type="saturate"
         result="colormatrix2" /><feComposite
         id="feComposite22-4"
         in="colormatrix2"
         in2="fbSourceGraphic"
         operator="in"
         result="fbSourceGraphic" /><feColorMatrix
         result="fbSourceGraphicAlpha"
         in="fbSourceGraphic"
         values="0 0 0 -1 0 0 0 0 -1 0 0 0 0 -1 0 0 0 0 1 0"
         id="feColorMatrix23-9" /><feComposite
         id="feComposite23-3"
         in2="fbSourceGraphic"
         operator="arithmetic"
         k1="0"
         k2="7.19033"
         result="composite1"
         in="fbSourceGraphic"
         k3="0"
         k4="0" /><feColorMatrix
         id="feColorMatrix24-0"
         in="composite1"
         values="1"
         type="saturate"
         result="colormatrix1" /><feFlood
         id="feFlood24-5"
         flood-opacity="1"
         flood-color="rgb(158,67,0)"
         result="flood1" /><feBlend
         id="feBlend24-2"
         in="flood1"
         in2="colormatrix1"
         mode="multiply"
         result="blend1" /><feBlend
         id="feBlend25-3"
         in2="blend1"
         mode="screen"
         result="blend2" /><feColorMatrix
         id="feColorMatrix25-8"
         in="blend2"
         values="1"
         type="saturate"
         result="colormatrix2" /><feComposite
         id="feComposite25-7"
         in="colormatrix2"
         in2="fbSourceGraphic"
         operator="in"
         result="fbSourceGraphic" /><feColorMatrix
         result="fbSourceGraphicAlpha"
         in="fbSourceGraphic"
         values="0 0 0 -1 0 0 0 0 -1 0 0 0 0 -1 0 0 0 0 1 0"
         id="feColorMatrix26-8" /><feComposite
         id="feComposite26-0"
         in2="fbSourceGraphic"
         operator="arithmetic"
         k1="0"
         k2="7.19033"
         result="composite1"
         in="fbSourceGraphic"
         k3="0"
         k4="0" /><feColorMatrix
         id="feColorMatrix27-4"
         in="composite1"
         values="1"
         type="saturate"
         result="colormatrix1" /><feFlood
         id="feFlood27-5"
         flood-opacity="1"
         flood-color="rgb(158,67,0)"
         result="flood1" /><feBlend
         id="feBlend27-7"
         in="flood1"
         in2="colormatrix1"
         mode="multiply"
         result="blend1" /><feBlend
         id="feBlend28-1"
         in2="blend1"
         mode="screen"
         result="blend2" /><feColorMatrix
         id="feColorMatrix28-0"
         in="blend2"
         values="1"
         type="saturate"
         result="colormatrix2" /><feComposite
         id="feComposite28-6"
         in="colormatrix2"
         in2="fbSourceGraphic"
         operator="in"
         result="fbSourceGraphic" /><feColorMatrix
         result="fbSourceGraphicAlpha"
         in="fbSourceGraphic"
         values="0 0 0 -1 0 0 0 0 -1 0 0 0 0 -1 0 0 0 0 1 0"
         id="feColorMatrix29-0" /><feComposite
         id="feComposite29-3"
         in2="fbSourceGraphic"
         operator="arithmetic"
         k1="0"
         k2="10"
         result="composite1"
         in="fbSourceGraphic"
         k3="0"
         k4="0" /><feColorMatrix
         id="feColorMatrix30-3"
         in="composite1"
         values="1"
         type="saturate"
         result="colormatrix1" /><feFlood
         id="feFlood30-5"
         flood-opacity="1"
         flood-color="rgb(158,67,0)"
         result="flood1" /><feBlend
         id="feBlend30-0"
         in="flood1"
         in2="colormatrix1"
         mode="multiply"
         result="blend1" /><feBlend
         id="feBlend31-2"
         in2="blend1"
         mode="multiply"
         result="blend2" /><feColorMatrix
         id="feColorMatrix31-3"
         in="blend2"
         values="1"
         type="saturate"
         result="colormatrix2" /><feComposite
         id="feComposite31-2"
         in="colormatrix2"
         in2="fbSourceGraphic"
         operator="in"
         result="fbSourceGraphic" /><feColorMatrix
         result="fbSourceGraphicAlpha"
         in="fbSourceGraphic"
         values="0 0 0 -1 0 0 0 0 -1 0 0 0 0 -1 0 0 0 0 1 0"
         id="feColorMatrix33-7" /><feFlood
         id="feFlood33-1"
         flood-opacity="1"
         flood-color="rgb(202,0,0)"
         result="flood"
         in="fbSourceGraphic" /><feComposite
         id="feComposite33-0"
         in="flood"
         in2="fbSourceGraphic"
         operator="in"
         result="composite" /><feGaussianBlur
         id="feGaussianBlur33-0"
         stdDeviation="0.01"
         result="fbSourceGraphic" /><feColorMatrix
         result="fbSourceGraphicAlpha"
         in="fbSourceGraphic"
         values="0 0 0 -1 0 0 0 0 -1 0 0 0 0 -1 0 0 0 0 1 0"
         id="feColorMatrix34-9" /><feFlood
         id="feFlood34-7"
         flood-opacity="1"
         flood-color="rgb(64,99,216)"
         result="flood"
         in="fbSourceGraphic" /><feComposite
         id="feComposite34-1"
         in="flood"
         in2="fbSourceGraphic"
         operator="in"
         result="composite" /><feGaussianBlur
         id="feGaussianBlur34-7"
         stdDeviation="0.01" /></filter><filter
       style="color-interpolation-filters:sRGB"
       inkscape:label="Silhouette"
       id="filter35"
       x="-0.0053250951"
       y="-0.0060110148"
       width="1.0106502"
       height="1.012022"><feFlood
         flood-opacity="1"
         flood-color="rgb(64,99,216)"
         result="flood"
         id="feFlood35" /><feComposite
         in="flood"
         in2="SourceGraphic"
         operator="in"
         result="composite"
         id="feComposite35" /><feGaussianBlur
         stdDeviation="0.01"
         id="feGaussianBlur35"
         result="fbSourceGraphic" /><feColorMatrix
         result="fbSourceGraphicAlpha"
         in="fbSourceGraphic"
         values="0 0 0 -1 0 0 0 0 -1 0 0 0 0 -1 0 0 0 0 1 0"
         id="feColorMatrix36" /><feFlood
         id="feFlood37"
         flood-opacity="1"
         flood-color="rgb(149,88,178)"
         result="flood"
         in="fbSourceGraphic" /><feComposite
         id="feComposite37"
         in="flood"
         in2="fbSourceGraphic"
         operator="in"
         result="composite" /><feGaussianBlur
         id="feGaussianBlur37"
         stdDeviation="0.01" /></filter><filter
       style="color-interpolation-filters:sRGB"
       inkscape:label="Silhouette"
       id="filter35-3"
       x="-0.01065019"
       y="-0.01202203"
       width="1.0213004"
       height="1.0240441"><feFlood
         flood-opacity="1"
         flood-color="rgb(64,99,216)"
         result="flood"
         id="feFlood35-0" /><feComposite
         in="flood"
         in2="SourceGraphic"
         operator="in"
         result="composite"
         id="feComposite35-1" /><feGaussianBlur
         stdDeviation="0.01"
         id="feGaussianBlur35-9"
         result="fbSourceGraphic" /><feColorMatrix
         result="fbSourceGraphicAlpha"
         in="fbSourceGraphic"
         values="0 0 0 -1 0 0 0 0 -1 0 0 0 0 -1 0 0 0 0 1 0"
         id="feColorMatrix35" /><feFlood
         id="feFlood36"
         flood-opacity="1"
         flood-color="rgb(56,152,38)"
         result="flood"
         in="fbSourceGraphic" /><feComposite
         id="feComposite36"
         in="flood"
         in2="fbSourceGraphic"
         operator="in"
         result="composite" /><feGaussianBlur
         id="feGaussianBlur36"
         stdDeviation="0.01"
         result="fbSourceGraphic" /><feColorMatrix
         result="fbSourceGraphicAlpha"
         in="fbSourceGraphic"
         values="0 0 0 -1 0 0 0 0 -1 0 0 0 0 -1 0 0 0 0 1 0"
         id="feColorMatrix37" /><feFlood
         id="feFlood38"
         flood-opacity="1"
         flood-color="rgb(203,60,195)"
         result="flood"
         in="fbSourceGraphic" /><feComposite
         id="feComposite38"
         in="flood"
         in2="fbSourceGraphic"
         operator="in"
         result="composite" /><feGaussianBlur
         id="feGaussianBlur38"
         stdDeviation="0.01"
         result="fbSourceGraphic" /><feColorMatrix
         result="fbSourceGraphicAlpha"
         in="fbSourceGraphic"
         values="0 0 0 -1 0 0 0 0 -1 0 0 0 0 -1 0 0 0 0 1 0"
         id="feColorMatrix38" /><feFlood
         id="feFlood39"
         flood-opacity="1"
         flood-color="rgb(203,60,51)"
         result="flood"
         in="fbSourceGraphic" /><feComposite
         id="feComposite39"
         in="flood"
         in2="fbSourceGraphic"
         operator="in"
         result="composite" /><feGaussianBlur
         id="feGaussianBlur39"
         stdDeviation="0.01" /></filter><filter
       style="color-interpolation-filters:sRGB"
       inkscape:label="Silhouette"
       id="filter35-3-6"
       x="-0.0053250951"
       y="-0.0060110148"
       width="1.0106502"
       height="1.012022"><feFlood
         flood-opacity="1"
         flood-color="rgb(64,99,216)"
         result="flood"
         id="feFlood35-0-1" /><feComposite
         in="flood"
         in2="SourceGraphic"
         operator="in"
         result="composite"
         id="feComposite35-1-1" /><feGaussianBlur
         stdDeviation="0.01"
         id="feGaussianBlur35-9-8"
         result="fbSourceGraphic" /><feColorMatrix
         result="fbSourceGraphicAlpha"
         in="fbSourceGraphic"
         values="0 0 0 -1 0 0 0 0 -1 0 0 0 0 -1 0 0 0 0 1 0"
         id="feColorMatrix35-1" /><feFlood
         id="feFlood36-1"
         flood-opacity="1"
         flood-color="rgb(56,152,38)"
         result="flood"
         in="fbSourceGraphic" /><feComposite
         id="feComposite36-5"
         in="flood"
         in2="fbSourceGraphic"
         operator="in"
         result="composite" /><feGaussianBlur
         id="feGaussianBlur36-0"
         stdDeviation="0.01" /></filter><filter
       style="color-interpolation-filters:sRGB;"
       inkscape:label="Silhouette"
       id="filter81"
       x="-0.0047701862"
       y="-0.0048046941"
       width="1.0095404"
       height="1.0096094"><feFlood
         flood-opacity="1"
         flood-color="rgb(64,99,216)"
         result="flood"
         id="feFlood81" /><feComposite
         in="flood"
         in2="SourceGraphic"
         operator="in"
         result="composite"
         id="feComposite81" /><feGaussianBlur
         stdDeviation="0.01"
         id="feGaussianBlur81"
         result="fbSourceGraphic" /><feColorMatrix
         result="fbSourceGraphicAlpha"
         in="fbSourceGraphic"
         values="0 0 0 -1 0 0 0 0 -1 0 0 0 0 -1 0 0 0 0 1 0"
         id="feColorMatrix81" /><feFlood
         id="feFlood82"
         flood-opacity="1"
         flood-color="rgb(0,0,0)"
         result="flood"
         in="fbSourceGraphic" /><feComposite
         id="feComposite82"
         in="flood"
         in2="fbSourceGraphic"
         operator="in"
         result="composite" /><feGaussianBlur
         id="feGaussianBlur82"
         stdDeviation="0.01" /></filter><filter
       style="color-interpolation-filters:sRGB;"
       inkscape:label="Silhouette"
       id="filter1"
       x="-0.00072183267"
       y="-0.0007096327"
       width="1.0014437"
       height="1.0014193"><feFlood
         flood-opacity="1"
         flood-color="rgb(0,0,0)"
         result="flood"
         id="feFlood1" /><feComposite
         in="flood"
         in2="SourceGraphic"
         operator="in"
         result="composite"
         id="feComposite1" /><feGaussianBlur
         stdDeviation="0.01"
         id="feGaussianBlur1" /></filter><filter
       style="color-interpolation-filters:sRGB;"
       inkscape:label="Silhouette"
       id="filter2"
       x="-0.0006256375"
       y="-0.00055734437"
       width="1.0012513"
       height="1.0011147"><feFlood
         flood-opacity="1"
         flood-color="rgb(0,0,0)"
         result="flood"
         id="feFlood2" /><feComposite
         in="flood"
         in2="SourceGraphic"
         operator="in"
         result="composite"
         id="feComposite2" /><feGaussianBlur
         stdDeviation="0.01"
         id="feGaussianBlur2" /></filter><filter
       style="color-interpolation-filters:sRGB;"
       inkscape:label="Silhouette"
       id="filter3"
       x="-0.00098149359"
       y="-0.00071163745"
       width="1.001963"
       height="1.0014233"><feFlood
         flood-opacity="1"
         flood-color="rgb(0,0,0)"
         result="flood"
         id="feFlood3" /><feComposite
         in="flood"
         in2="SourceGraphic"
         operator="in"
         result="composite"
         id="feComposite3" /><feGaussianBlur
         stdDeviation="0.01"
         id="feGaussianBlur3" /></filter><filter
       style="color-interpolation-filters:sRGB;"
       inkscape:label="Silhouette"
       id="filter4"
       x="-0.00073948383"
       y="-0.00048291859"
       width="1.001479"
       height="1.0009658"><feFlood
         flood-opacity="1"
         flood-color="rgb(0,0,0)"
         result="flood"
         id="feFlood4" /><feComposite
         in="flood"
         in2="SourceGraphic"
         operator="in"
         result="composite"
         id="feComposite4" /><feGaussianBlur
         stdDeviation="0.01"
         id="feGaussianBlur4" /></filter><filter
       style="color-interpolation-filters:sRGB;"
       inkscape:label="Silhouette"
       id="filter5"
       x="-0.001052602"
       y="-0.00049819894"
       width="1.0021052"
       height="1.0009964"><feFlood
         flood-opacity="1"
         flood-color="rgb(0,0,0)"
         result="flood"
         id="feFlood5" /><feComposite
         in="flood"
         in2="SourceGraphic"
         operator="in"
         result="composite"
         id="feComposite5" /><feGaussianBlur
         stdDeviation="0.01"
         id="feGaussianBlur5" /></filter><filter
       style="color-interpolation-filters:sRGB;"
       inkscape:label="Silhouette"
       id="filter6"
       x="-0.0024458224"
       y="-0.00048885077"
       width="1.0048916"
       height="1.0009777"><feFlood
         flood-opacity="1"
         flood-color="rgb(0,0,0)"
         result="flood"
         id="feFlood6" /><feComposite
         in="flood"
         in2="SourceGraphic"
         operator="in"
         result="composite"
         id="feComposite6" /><feGaussianBlur
         stdDeviation="0.01"
         id="feGaussianBlur6" /></filter></defs><g
     inkscape:groupmode="layer"
     id="layer3"
     inkscape:label="Layer 3"><path
       style="-inkscape-font-specification:'Tamil MN, Bold';fill:#1a1a1a;filter:url(#filter81)"
       d="m 236.67383,289.50358 c -0.70486,0 -1.36111,0.134 -1.96875,0.40137 -0.58334,0.26736 -1.10558,0.63194 -1.56739,1.09375 -0.4618,0.4375 -0.82638,0.97255 -1.09375,1.60449 -0.24305,0.60764 -0.36523,1.25108 -0.36523,1.93164 0,0.70486 0.12218,1.36111 0.36523,1.96875 0.26737,0.60764 0.63195,1.13086 1.09375,1.56836 0.46181,0.4375 0.98405,0.77745 1.56739,1.02051 0.60764,0.26736 1.26389,0.40136 1.96875,0.40136 0.70486,0 1.36111,-0.134 1.96875,-0.40136 0.63194,-0.24306 1.16699,-0.58301 1.60449,-1.02051 0.46181,-0.4375 0.82639,-0.96072 1.09375,-1.56836 0.26736,-0.60764 0.40039,-1.26389 0.40039,-1.96875 0,-0.68056 -0.13303,-1.324 -0.40039,-1.93164 -0.26736,-0.63194 -0.63194,-1.16699 -1.09375,-1.60449 -0.4375,-0.46181 -0.97255,-0.82639 -1.60449,-1.09375 -0.60764,-0.26737 -1.26389,-0.40137 -1.96875,-0.40137 z"
       transform="matrix(0.87102605,0,0,0.87102606,-41.828709,-192.9739)"
       id="path80" /><path
       id="path77"
       style="-inkscape-font-specification:'Tamil MN, Bold';fill:#1a1a1a;stroke-width:0.871026;filter:url(#filter1)"
       d="m 68.28974,34.167977 c -2.540495,0 -4.848401,0.454893 -6.923124,1.365238 -2.053566,0.889169 -3.820756,2.137959 -5.302711,3.746936 -1.481955,1.608977 -2.625176,3.514355 -3.429665,5.716109 -0.804497,2.180587 -1.207024,4.552009 -1.207024,7.113669 0,2.13824 0.434285,4.17064 1.302288,6.09718 0.88917,1.90537 2.084749,3.58845 3.587879,5.04923 1.503121,1.43961 3.271173,2.59314 5.303564,3.46113 2.032391,0.84684 4.202117,1.27082 6.509727,1.27082 1.799513,0 3.577861,-0.32872 5.335034,-0.98501 1.757173,-0.67746 3.376742,-1.59839 4.858697,-2.76279 1.503121,-1.16438 2.805131,-2.51875 3.906003,-4.06421 1.122047,-1.54547 1.937415,-3.19679 2.44551,-4.95396 l -5.017754,-0.79448 c -0.296393,0.99503 -0.77274,1.92711 -1.429032,2.79511 -0.656292,0.84683 -1.428744,1.59783 -2.317914,2.25412 -0.889169,0.63512 -1.863316,1.14322 -2.921848,1.52429 -1.037374,0.35991 -2.095628,0.54015 -3.175334,0.54015 -1.249077,0 -2.392299,-0.35963 -3.429665,-1.07943 -1.0162,-0.74098 -1.90537,-1.72542 -2.667517,-2.95332 -0.762148,-1.24908 -1.375821,-2.68925 -1.841576,-4.31941 -0.444589,-1.63014 -0.70979,-3.34498 -0.794472,-5.144498 H 83.59649 c 0,-1.926536 -0.370769,-3.736641 -1.111751,-5.430299 -0.740973,-1.693658 -1.788922,-3.164743 -3.143855,-4.41382 -1.333759,-1.249078 -2.943023,-2.23352 -4.827218,-2.953327 -1.884204,-0.719807 -3.958657,-1.079428 -6.223926,-1.079428 z m -1.841575,4.064225 c 0.783322,0 1.513712,0.158779 2.191179,0.476338 0.677458,0.296393 1.269669,0.730678 1.777773,1.302289 0.508096,0.571611 0.920936,1.259948 1.238495,2.064436 0.338724,0.783314 0.550715,1.65103 0.635404,2.603723 H 61.176079 c 0.105856,-0.973859 0.317846,-1.852733 0.635405,-2.636047 0.338733,-0.804488 0.741261,-1.481667 1.207016,-2.032112 0.486929,-0.571611 1.026783,-1.005896 1.619568,-1.302289 0.592777,-0.317559 1.196145,-0.476338 1.810097,-0.476338 z" /><path
       style="-inkscape-font-specification:'Tamil MN, Bold';fill:#1a1a1a;stroke-width:0.871026;filter:url(#filter5)"
       d="m 182.51664,34.072713 -6.9546,3.620202 v 35.820944 c 0,0.95269 -0.0318,1.73544 -0.0953,2.34939 -0.0635,0.61395 -0.16908,1.10145 -0.31728,1.46135 -0.1482,0.3599 -0.32843,0.6028 -0.54013,0.72983 -0.21171,0.14819 -0.45546,0.22286 -0.73068,0.22286 -1.07971,0 -2.1062,-0.29696 -3.08006,-0.88975 -0.97386,-0.57161 -1.9583,-1.61956 -2.95333,-3.14385 l -5.17597,3.74779 c 0.40225,0.42341 0.86744,0.8783 1.39671,1.36523 0.52926,0.5081 1.16439,0.97414 1.90537,1.39756 0.7198,0.42341 1.56692,0.77273 2.54077,1.04795 0.95269,0.29639 2.06415,0.44402 3.3344,0.44402 1.84186,0 3.58845,-0.16908 5.23977,-0.50782 1.65132,-0.33873 3.09065,-0.9953 4.31854,-1.96916 1.24909,-0.97385 2.23352,-2.34967 2.95333,-4.12802 0.74098,-1.75717 1.11175,-4.07537 1.11175,-6.95459 V 34.072713 Z"
       id="path76" /><path
       style="-inkscape-font-specification:'Tamil MN, Bold';fill:#1a1a1a;stroke-width:0.871026;filter:url(#filter3)"
       d="m 109.82679,33.532572 c -1.46078,0 -2.85805,0.339021 -4.19181,1.016479 -1.31259,0.677467 -2.50902,1.57694 -3.58873,2.698996 l -2.95332,-3.175334 -6.890808,3.620202 v 29.564694 h 9.844128 V 43.726304 c 0.25405,-0.592786 0.60337,-1.142943 1.04796,-1.651039 0.46574,-0.52927 0.985,-0.985009 1.55661,-1.366082 0.57162,-0.402249 1.18529,-0.708659 1.84157,-0.920361 0.6563,-0.232878 1.32318,-0.349604 2.00065,-0.349604 0.48692,0 0.92121,0.04207 1.30227,0.126743 0.40225,0.0635 0.78333,0.180241 1.14323,0.349604 0.3599,0.169362 0.71953,0.391656 1.07942,0.666875 0.38108,0.275218 0.79391,0.603081 1.2385,0.984154 l 3.39819,-5.239761 c -0.84683,-0.698633 -1.84243,-1.333759 -2.98565,-1.90537 -1.14322,-0.592777 -2.42377,-0.888891 -3.84221,-0.888891 z"
       id="path75" /><path
       style="-inkscape-font-specification:'Tamil MN, Bold';fill:#1a1a1a;stroke-width:0.871026;filter:url(#filter2)"
       d="M 5,24.196262 V 67.257609 H 15.574801 V 46.743416 H 32.881339 V 67.257609 H 43.360871 V 24.196262 H 32.881339 V 43.05942 H 15.574801 V 24.196262 Z"
       id="path74" /><path
       style="-inkscape-font-specification:'Tamil MN, Bold';fill:#1a1a1a;stroke-width:0.871026;filter:url(#filter6)"
       d="m 202.04668,18.162873 -6.85933,3.620202 V 67.257609 H 205 V 18.162873 Z"
       id="path72" /><path
       id="text1"
       style="-inkscape-font-specification:'Tamil MN, Bold';fill:#1a1a1a;stroke-width:0.871026;filter:url(#filter4)"
       d="m 128.72142,18.162873 -6.95459,3.620202 v 41.759074 c 1.86302,1.50312 3.95892,2.60428 6.28772,3.30292 2.34995,0.67746 4.80633,1.01562 7.36799,1.01562 1.736,0 3.39762,-0.23259 4.98543,-0.69834 1.60898,-0.46576 3.11183,-1.11119 4.50909,-1.93685 1.39728,-0.84683 2.66751,-1.86302 3.81074,-3.04859 1.14322,-1.18556 2.11737,-2.48756 2.92185,-3.906 0.82566,-1.41844 1.46079,-2.93244 1.90537,-4.54142 0.44459,-1.63015 0.66688,-3.31323 0.66688,-5.049225 0,-1.968884 -0.34931,-3.832201 -1.04795,-5.589374 -0.69864,-1.757164 -1.67277,-3.291764 -2.92185,-4.604357 -1.24908,-1.333759 -2.73047,-2.381708 -4.4453,-3.143855 -1.71483,-0.783323 -3.58845,-1.174701 -5.62084,-1.174701 -1.39727,0 -2.84776,0.264357 -4.35088,0.793627 -1.50313,0.52927 -2.89009,1.206441 -4.16033,2.032104 V 18.162873 Z m 8.38363,22.355773 c 0.95268,0 1.853,0.265201 2.69984,0.794471 0.84683,0.52927 1.57722,1.259661 2.19117,2.191171 0.63513,0.910344 1.13207,1.97891 1.49198,3.206804 0.3599,1.206737 0.54013,2.498447 0.54013,3.874537 0,1.84186 -0.18023,3.567 -0.54013,5.17597 -0.33874,1.58781 -0.83569,2.97477 -1.49198,4.16035 -0.63513,1.16437 -1.40842,2.08531 -2.31876,2.76278 -0.88918,0.65629 -1.88392,0.98415 -2.9848,0.98415 -0.55044,0 -1.05854,-0.0635 -1.52429,-0.19054 -0.46576,-0.12702 -0.90004,-0.2961 -1.30229,-0.5078 -0.40225,-0.21171 -0.78332,-0.45546 -1.14322,-0.73068 -0.35991,-0.27522 -0.70923,-0.56103 -1.04795,-0.85742 V 43.3767 c 0.71981,-0.825654 1.57722,-1.502842 2.57224,-2.032113 0.99503,-0.550436 1.94771,-0.825941 2.85806,-0.825941 z" /></g><g
     inkscape:label="Layer 1"
     inkscape:groupmode="layer"
     id="layer1"><path
       style="fill:#020202;stroke:none;filter:url(#filter35)"
       d="m 126.24719,67.197719 c -0.78326,0.667584 -1.76045,1.0482 -2.64844,1.543637 -0.54656,0.304945 -1.07666,0.725886 -1.48651,1.19855 -0.14934,0.172234 -0.38177,0.353611 -0.33362,0.609375 0.0614,0.325959 0.5874,0.501417 0.8592,0.601906 0.95014,0.351295 2.01386,0.325787 2.95312,-0.04993 1.98058,-0.792259 3.13282,-2.895732 3.77344,-4.8176 0.22646,-0.679383 0.40678,-1.379343 0.52532,-2.085937 0.0319,-0.190228 0.16751,-0.562655 0.005,-0.716399 -0.21797,-0.20558 -0.43281,0.115748 -0.5767,0.237358 -0.49068,0.41471 -1.11636,0.639922 -1.73437,0.78644 -1.70562,0.404366 -3.49889,0.15068 -5.01563,1.2028 -0.96863,0.671916 -1.44156,1.63475 -1.577,2.778863 -0.0387,0.326941 -0.12159,1.104948 0.33482,1.164406 0.28986,0.03776 0.57251,-0.362623 0.77343,-0.529694 0.52706,-0.438265 1.12242,-0.766978 1.75782,-1.019062 0.42732,-0.169534 0.88028,-0.251344 1.3125,-0.405309 0.37686,-0.13425 0.71773,-0.331142 1.07812,-0.499403 m 0.0937,-0.07031 -0.0937,0.07031 v -0.02344 z"
       id="path34"
       transform="matrix(1.6275462,-0.24600766,0.24600766,1.6275462,-34.601963,-54.412518)" /><path
       style="fill:#020202;stroke:none;filter:url(#filter35-3)"
       d="m 122.27081,68.251531 c -0.78326,0.667584 -1.76045,1.0482 -2.64844,1.543637 -0.54656,0.304945 -1.07666,0.725886 -1.48651,1.19855 -0.14934,0.172234 -0.38177,0.353611 -0.33362,0.609375 0.0614,0.325959 0.5874,0.501417 0.8592,0.601906 0.95014,0.351295 2.01386,0.325787 2.95312,-0.04993 1.98058,-0.792259 3.13282,-2.895732 3.77344,-4.8176 0.22646,-0.679383 0.40678,-1.379343 0.52532,-2.085937 0.0319,-0.190228 0.16751,-0.562655 0.005,-0.716399 -0.21797,-0.20558 -0.43281,0.115748 -0.5767,0.237358 -0.49068,0.41471 -1.11636,0.639922 -1.73437,0.78644 -1.70562,0.404366 -3.49889,0.15068 -5.01563,1.2028 -0.96863,0.671916 -1.44156,1.63475 -1.577,2.778863 -0.0387,0.326941 -0.12159,1.104948 0.33482,1.164406 0.28986,0.03776 0.57251,-0.362623 0.77343,-0.529694 0.52706,-0.438265 1.12242,-0.766978 1.75782,-1.019062 0.42732,-0.169534 0.88028,-0.251344 1.3125,-0.405309 0.37686,-0.13425 0.71773,-0.331142 1.07812,-0.499403 m 0.0937,-0.07031 -0.0937,0.07031 v -0.02344 z"
       id="path34-5"
       transform="matrix(-0.21780552,-1.6315597,1.6315597,-0.21780552,86.117491,240.73914)" /><path
       style="fill:#020202;stroke:none;filter:url(#filter35-3-6)"
       d="m 122.27081,68.251531 c -0.78326,0.667584 -1.76045,1.0482 -2.64844,1.543637 -0.54656,0.304945 -1.07666,0.725886 -1.48651,1.19855 -0.14934,0.172234 -0.38177,0.353611 -0.33362,0.609375 0.0614,0.325959 0.5874,0.501417 0.8592,0.601906 0.95014,0.351295 2.01386,0.325787 2.95312,-0.04993 1.98058,-0.792259 3.13282,-2.895732 3.77344,-4.8176 0.22646,-0.679383 0.40678,-1.379343 0.52532,-2.085937 0.0319,-0.190228 0.16751,-0.562655 0.005,-0.716399 -0.21797,-0.20558 -0.43281,0.115748 -0.5767,0.237358 -0.49068,0.41471 -1.11636,0.639922 -1.73437,0.78644 -1.70562,0.404366 -3.49889,0.15068 -5.01563,1.2028 -0.96863,0.671916 -1.44156,1.63475 -1.577,2.778863 -0.0387,0.326941 -0.12159,1.104948 0.33482,1.164406 0.28986,0.03776 0.57251,-0.362623 0.77343,-0.529694 0.52706,-0.438265 1.12242,-0.766978 1.75782,-1.019062 0.42732,-0.169534 0.88028,-0.251344 1.3125,-0.405309 0.37686,-0.13425 0.71773,-0.331142 1.07812,-0.499403 m 0.0937,-0.07031 -0.0937,0.07031 v -0.02344 z"
       id="path34-5-8"
       transform="matrix(0.40134744,-1.5963541,1.5963541,0.40134745,17.425955,180.3571)" /></g></svg>
